<svg width="12" height="12" viewBox="0 0 12 12" fill="none" xmlns="http://www.w3.org/2000/svg">
<path d="M7.40292 2.48316L1.40436 0.742055C0.861546 0.584504 0.283693 0.837315 0.0309322 1.34292C-0.0355878 1.47598 0.00826508 1.63778 0.132865 1.71903L5.14762 4.98904L7.40292 2.48316Z" fill="#6F7F8F"/>
<path d="M2.55328 7.87164L0.961204 7.92211C0.644206 7.93216 0.342941 8.06258 0.11868 8.28688C0.0183178 8.38725 0.0458002 8.55647 0.172767 8.61991L1.3503 9.20828L2.55328 7.87164Z" fill="#6F7F8F"/>
<path d="M1.41774 9.5468C1.41009 9.81472 1.50874 10.0848 1.71262 10.2887C1.98881 10.5648 2.38646 10.6478 2.73561 10.535L3.38143 11.828C3.44488 11.955 3.61412 11.9825 3.7145 11.8821C3.93874 11.6579 4.06918 11.3566 4.0793 11.0396L4.13321 9.3523L6.92678 6.72271L10.2823 11.8672C10.3636 11.9918 10.5253 12.0356 10.6584 11.9691C11.1639 11.7162 11.4167 11.1382 11.259 10.5953L9.44588 4.35149L11.2269 2.67501C11.602 2.32197 11.8421 1.84913 11.906 1.33801L11.9954 0.621895C12.0401 0.263931 11.7358 -0.0403674 11.3779 0.00438439L10.6615 0.0939893C10.1506 0.157901 9.67787 0.398069 9.32494 0.773116L9.07547 1.03822L1.41774 9.5468Z" fill="#6F7F8F"/>
</svg>
