<svg width="16" height="13" viewBox="0 0 16 13" fill="none" xmlns="http://www.w3.org/2000/svg">
<path fill-rule="evenodd" clip-rule="evenodd" d="M13.25 0.747945C13.075 0.30274 12.6375 0 12.165 0H8H3.835C3.3625 0 2.9425 0.30274 2.7675 0.747945L1.10599 5H1C0.447715 5 0 5.44772 0 6C0 6.55228 0.447715 7 1 7L1 9.42055V11.4507V12.1452C1 12.6082 1.385 13 1.8575 13H2.4175C2.89 13 3.275 12.6082 3.275 12.1274V11.4329H8H12.725V12.1274C12.725 12.6082 13.11 13 13.5825 13H14.1425C14.615 13 15 12.6082 15 12.1274V11.4329V9.40274V7C15.5523 7 16 6.55228 16 6C16 5.44772 15.5523 5 15 5H14.8951L13.25 0.747945ZM3.695 8.8863C3.03 8.8863 2.4875 8.33425 2.4875 7.65753C2.4875 6.98082 3.03 6.42877 3.695 6.42877C4.36 6.42877 4.9025 6.98082 4.9025 7.65753C4.9025 8.33425 4.36 8.8863 3.695 8.8863ZM2.505 4.96849L3.625 1.44247H8H12.375L13.495 4.96849H8H2.505ZM12.305 8.8863C11.64 8.8863 11.0975 8.33425 11.0975 7.65753C11.0975 6.98082 11.64 6.42877 12.305 6.42877C12.97 6.42877 13.5125 6.98082 13.5125 7.65753C13.5125 8.33425 12.97 8.8863 12.305 8.8863Z" fill="#373F47"/>
</svg>
