<svg width="14" height="15" viewBox="0 0 14 15" fill="none" xmlns="http://www.w3.org/2000/svg">
<path d="M5.05774 7.89884C5.05774 7.71949 4.91226 7.57419 4.73276 7.57419H3.59872C3.41943 7.57419 3.27393 7.71949 3.27393 7.89884V9.03273C3.27393 9.21232 3.41943 9.35768 3.59872 9.35768H4.73276C4.91226 9.35768 5.05774 9.21232 5.05774 9.03273V7.89884Z" fill="#373F47"/>
<path d="M7.89178 7.89884C7.89178 7.71949 7.74628 7.57419 7.56713 7.57419H6.43295C6.25366 7.57419 6.10815 7.71949 6.10815 7.89884V9.03273C6.10815 9.21232 6.25366 9.35768 6.43295 9.35768H7.56713C7.74628 9.35768 7.89178 9.21232 7.89178 9.03273V7.89884Z" fill="#373F47"/>
<path d="M10.7261 7.89884C10.7261 7.71949 10.5806 7.57419 10.4013 7.57419H9.26723C9.08774 7.57419 8.94226 7.71949 8.94226 7.89884V9.03273C8.94226 9.21232 9.08774 9.35768 9.26723 9.35768H10.4013C10.5806 9.35768 10.7261 9.21232 10.7261 9.03273V7.89884Z" fill="#373F47"/>
<path d="M5.05774 10.7333C5.05774 10.5536 4.91226 10.4084 4.73276 10.4084H3.59872C3.41943 10.4084 3.27393 10.5536 3.27393 10.7333V11.8669C3.27393 12.0464 3.41943 12.1917 3.59872 12.1917H4.73276C4.91226 12.1917 5.05774 12.0464 5.05774 11.8669V10.7333Z" fill="#373F47"/>
<path d="M7.89178 10.7333C7.89178 10.5536 7.74628 10.4084 7.56713 10.4084H6.43295C6.25366 10.4084 6.10815 10.5536 6.10815 10.7333V11.8669C6.10815 12.0464 6.25366 12.1917 6.43295 12.1917H7.56713C7.74628 12.1917 7.89178 12.0464 7.89178 11.8669V10.7333Z" fill="#373F47"/>
<path d="M10.7261 10.7333C10.7261 10.5536 10.5806 10.4084 10.4014 10.4084H9.26723C9.08774 10.4084 8.94226 10.5536 8.94226 10.7333V11.8669C8.94226 12.0464 9.08774 12.1917 9.26723 12.1917H10.4014C10.5806 12.1917 10.7261 12.0464 10.7261 11.8669V10.7333Z" fill="#373F47"/>
<path d="M12.7539 1.5942V3.32613C12.7539 4.10894 12.1188 4.73976 11.3361 4.73976H10.4418C9.65901 4.73976 9.01554 4.10894 9.01554 3.32613V1.58798H4.98446V3.32613C4.98446 4.10894 4.34102 4.73976 3.55838 4.73976H2.66385C1.88118 4.73976 1.24617 4.10894 1.24617 3.32613V1.5942C0.562106 1.61482 0 2.18086 0 2.87659V13.0265C0 13.7353 0.574512 14.3174 1.28333 14.3174H12.7167C13.4244 14.3174 14 13.7341 14 13.0265V2.87659C14 2.18086 13.4379 1.61482 12.7539 1.5942ZM12.3385 12.3944C12.3385 12.7008 12.0901 12.9493 11.7837 12.9493H2.1919C1.88547 12.9493 1.6371 12.7008 1.6371 12.3944V7.15164C1.6371 6.8452 1.88544 6.59669 2.1919 6.59669H11.7836C12.0901 6.59669 12.3384 6.8452 12.3384 7.15164L12.3385 12.3944Z" fill="#373F47"/>
<path d="M2.66073 3.81126H3.54537C3.81389 3.81126 4.0316 3.59387 4.0316 3.32536V0.486083C4.0316 0.217539 3.81389 0 3.54537 0H2.66073C2.39219 0 2.1745 0.217539 2.1745 0.486083V3.32536C2.1745 3.59387 2.39219 3.81126 2.66073 3.81126Z" fill="#373F47"/>
<path d="M10.4304 3.81126H11.3151C11.5834 3.81126 11.8011 3.59387 11.8011 3.32536V0.486083C11.8011 0.217539 11.5834 0 11.3151 0H10.4304C10.1619 0 9.94421 0.217539 9.94421 0.486083V3.32536C9.94421 3.59387 10.1619 3.81126 10.4304 3.81126Z" fill="#373F47"/>
</svg>
