<svg width="13" height="13" viewBox="0 0 13 13" fill="none" xmlns="http://www.w3.org/2000/svg">
<path d="M7.18182 2.47619V2.97619H7.68182C7.71036 2.97619 7.77273 3.00732 7.77273 3.09524V3.71429V4.21429H8.27273H8.86364C8.89218 4.21429 8.95455 4.24541 8.95455 4.33333V8.04762V8.54762H9.45455H10.6364H11.1364V8.04762V5.45238H11.3182V9.28572V9.78572H11.8182H12.5V12.5H0.5V8.35714C0.5 7.4145 1.22377 6.69048 2.06818 6.69048C2.9126 6.69048 3.63636 7.4145 3.63636 8.35714H4.13636H4.63636V4.33333C4.63636 4.24541 4.69873 4.21429 4.72727 4.21429H5.31818H5.81818V3.71429V3.09524C5.81818 3.00732 5.88055 2.97619 5.90909 2.97619H6.40909V2.47619V0.619048C6.40909 0.531127 6.47146 0.5 6.5 0.5H7.09091C7.11945 0.5 7.18182 0.531127 7.18182 0.619048V2.47619ZM1.32955 7.85714C0.950137 7.85714 0.681818 8.17248 0.681818 8.5119C0.681818 8.78324 0.853289 9.03919 1.11591 9.13095C0.85329 9.22272 0.681818 9.47866 0.681818 9.75C0.681818 10.0213 0.853289 10.2773 1.11591 10.3691C0.85329 10.4608 0.681818 10.7168 0.681818 10.9881C0.681818 11.3275 0.950135 11.6429 1.32955 11.6429H2.80682C3.18623 11.6429 3.45455 11.3275 3.45455 10.9881C3.45455 10.7168 3.28307 10.4608 3.02045 10.3691C3.28307 10.2773 3.45455 10.0213 3.45455 9.75C3.45455 9.47866 3.28307 9.22272 3.02045 9.13095C3.28307 9.03919 3.45455 8.78324 3.45455 8.5119C3.45455 8.17248 3.18623 7.85714 2.80682 7.85714H1.32955ZM6.05682 4.84041C5.95882 4.61902 5.74172 4.45238 5.46591 4.45238C5.0865 4.45238 4.81818 4.76772 4.81818 5.10714V10.9881C4.81818 11.3275 5.0865 11.6429 5.46591 11.6429C5.74172 11.6429 5.95882 11.4762 6.05682 11.2548C6.15482 11.4762 6.37192 11.6429 6.64773 11.6429C6.92354 11.6429 7.14064 11.4762 7.23864 11.2548C7.33664 11.4762 7.55374 11.6429 7.82955 11.6429C8.20895 11.6429 8.47727 11.3275 8.47727 10.9881V5.10714C8.47727 4.76772 8.20895 4.45238 7.82955 4.45238C7.55374 4.45238 7.33664 4.61902 7.23864 4.84042C7.14064 4.61902 6.92354 4.45238 6.64773 4.45238C6.37192 4.45238 6.15482 4.61902 6.05682 4.84041Z" fill="#6F7F8F" stroke="#6F7F8F"/>
</svg>
